<mxfile host="app.diagrams.net" agent="Mozilla/5.0 (Windows NT 10.0; Win64; x64) AppleWebKit/537.36 (KHTML, like Gecko) Chrome/140.0.0.0 Safari/537.36" version="28.2.3">
  <diagram name="PÃ¡gina-1" id="oicN4Sdxn5VJcvO4fipe">
    <mxGraphModel dx="1105" dy="1642" grid="1" gridSize="10" guides="1" tooltips="1" connect="1" arrows="1" fold="1" page="1" pageScale="1" pageWidth="827" pageHeight="1169" math="0" shadow="0">
      <root>
        <mxCell id="0" />
        <mxCell id="1" parent="0" />
        <mxCell id="dMX4puC5dlwm4Q9mcy3y-9" style="edgeStyle=none;shape=connector;rounded=0;orthogonalLoop=1;jettySize=auto;html=1;exitX=1;exitY=0.25;exitDx=0;exitDy=0;entryX=0;entryY=0.25;entryDx=0;entryDy=0;strokeColor=default;align=center;verticalAlign=middle;fontFamily=Helvetica;fontSize=11;fontColor=default;labelBackgroundColor=default;endArrow=none;" edge="1" parent="1" source="dMX4puC5dlwm4Q9mcy3y-10" target="dMX4puC5dlwm4Q9mcy3y-2">
          <mxGeometry relative="1" as="geometry" />
        </mxCell>
        <mxCell id="dMX4puC5dlwm4Q9mcy3y-1" value="Pasajero" style="whiteSpace=wrap;html=1;align=center;" vertex="1" parent="1">
          <mxGeometry x="330" y="80" width="100" height="40" as="geometry" />
        </mxCell>
        <mxCell id="dMX4puC5dlwm4Q9mcy3y-2" value="Vuelo" style="whiteSpace=wrap;html=1;align=center;" vertex="1" parent="1">
          <mxGeometry x="600" y="80" width="100" height="40" as="geometry" />
        </mxCell>
        <mxCell id="dMX4puC5dlwm4Q9mcy3y-23" style="edgeStyle=none;shape=connector;rounded=0;orthogonalLoop=1;jettySize=auto;html=1;exitX=0.5;exitY=0;exitDx=0;exitDy=0;entryX=0.5;entryY=1;entryDx=0;entryDy=0;strokeColor=default;align=center;verticalAlign=middle;fontFamily=Helvetica;fontSize=11;fontColor=default;labelBackgroundColor=default;endArrow=none;" edge="1" parent="1" source="dMX4puC5dlwm4Q9mcy3y-3" target="dMX4puC5dlwm4Q9mcy3y-2">
          <mxGeometry relative="1" as="geometry" />
        </mxCell>
        <mxCell id="dMX4puC5dlwm4Q9mcy3y-3" value="Personal" style="whiteSpace=wrap;html=1;align=center;" vertex="1" parent="1">
          <mxGeometry x="600" y="210" width="100" height="40" as="geometry" />
        </mxCell>
        <mxCell id="dMX4puC5dlwm4Q9mcy3y-7" style="edgeStyle=none;shape=connector;rounded=0;orthogonalLoop=1;jettySize=auto;html=1;exitX=0.5;exitY=1;exitDx=0;exitDy=0;entryX=0.5;entryY=0;entryDx=0;entryDy=0;strokeColor=default;align=center;verticalAlign=middle;fontFamily=Helvetica;fontSize=11;fontColor=default;labelBackgroundColor=default;endArrow=none;" edge="1" parent="1" source="dMX4puC5dlwm4Q9mcy3y-4" target="dMX4puC5dlwm4Q9mcy3y-1">
          <mxGeometry relative="1" as="geometry" />
        </mxCell>
        <mxCell id="dMX4puC5dlwm4Q9mcy3y-4" value="pasaporte" style="ellipse;whiteSpace=wrap;html=1;align=center;fontStyle=4;" vertex="1" parent="1">
          <mxGeometry x="270" y="-30" width="100" height="40" as="geometry" />
        </mxCell>
        <mxCell id="dMX4puC5dlwm4Q9mcy3y-12" value="" style="edgeStyle=none;shape=connector;rounded=0;orthogonalLoop=1;jettySize=auto;html=1;exitX=1;exitY=0.25;exitDx=0;exitDy=0;entryX=0;entryY=0.25;entryDx=0;entryDy=0;strokeColor=default;align=center;verticalAlign=middle;fontFamily=Helvetica;fontSize=11;fontColor=default;labelBackgroundColor=default;endArrow=none;" edge="1" parent="1" source="dMX4puC5dlwm4Q9mcy3y-1" target="dMX4puC5dlwm4Q9mcy3y-10">
          <mxGeometry relative="1" as="geometry">
            <mxPoint x="430" y="90" as="sourcePoint" />
            <mxPoint x="600" y="90" as="targetPoint" />
          </mxGeometry>
        </mxCell>
        <mxCell id="dMX4puC5dlwm4Q9mcy3y-10" value="compra" style="shape=associativeEntity;whiteSpace=wrap;html=1;align=center;fontFamily=Helvetica;fontSize=11;fontColor=default;labelBackgroundColor=default;" vertex="1" parent="1">
          <mxGeometry x="490" y="65" width="60" height="30" as="geometry" />
        </mxCell>
        <mxCell id="dMX4puC5dlwm4Q9mcy3y-13" value="N" style="text;strokeColor=none;fillColor=none;spacingLeft=4;spacingRight=4;overflow=hidden;rotatable=0;points=[[0,0.5],[1,0.5]];portConstraint=eastwest;fontSize=11;whiteSpace=wrap;html=1;fontFamily=Helvetica;fontColor=default;labelBackgroundColor=default;" vertex="1" parent="1">
          <mxGeometry x="430" y="60" width="40" height="30" as="geometry" />
        </mxCell>
        <mxCell id="dMX4puC5dlwm4Q9mcy3y-14" value="N" style="text;strokeColor=none;fillColor=none;spacingLeft=4;spacingRight=4;overflow=hidden;rotatable=0;points=[[0,0.5],[1,0.5]];portConstraint=eastwest;fontSize=11;whiteSpace=wrap;html=1;fontFamily=Helvetica;fontColor=default;labelBackgroundColor=default;" vertex="1" parent="1">
          <mxGeometry x="580" y="60" width="40" height="30" as="geometry" />
        </mxCell>
        <mxCell id="dMX4puC5dlwm4Q9mcy3y-16" style="edgeStyle=none;shape=connector;rounded=0;orthogonalLoop=1;jettySize=auto;html=1;exitX=0.5;exitY=1;exitDx=0;exitDy=0;entryX=0.5;entryY=0;entryDx=0;entryDy=0;strokeColor=default;align=center;verticalAlign=middle;fontFamily=Helvetica;fontSize=11;fontColor=default;labelBackgroundColor=default;endArrow=none;" edge="1" parent="1" source="dMX4puC5dlwm4Q9mcy3y-15" target="dMX4puC5dlwm4Q9mcy3y-2">
          <mxGeometry relative="1" as="geometry" />
        </mxCell>
        <mxCell id="dMX4puC5dlwm4Q9mcy3y-15" value="nroVuelo" style="ellipse;whiteSpace=wrap;html=1;align=center;fontStyle=4;" vertex="1" parent="1">
          <mxGeometry x="550.5" y="-10" width="100" height="40" as="geometry" />
        </mxCell>
        <mxCell id="dMX4puC5dlwm4Q9mcy3y-17" value="fecha" style="ellipse;whiteSpace=wrap;html=1;align=center;fontFamily=Helvetica;fontSize=11;fontColor=default;labelBackgroundColor=default;" vertex="1" parent="1">
          <mxGeometry x="669.5" y="-10" width="60.5" height="30" as="geometry" />
        </mxCell>
        <mxCell id="dMX4puC5dlwm4Q9mcy3y-18" style="edgeStyle=none;shape=connector;rounded=0;orthogonalLoop=1;jettySize=auto;html=1;exitX=0.75;exitY=0;exitDx=0;exitDy=0;entryX=0;entryY=1;entryDx=0;entryDy=0;strokeColor=default;align=center;verticalAlign=middle;fontFamily=Helvetica;fontSize=11;fontColor=default;labelBackgroundColor=default;endArrow=none;" edge="1" parent="1" source="dMX4puC5dlwm4Q9mcy3y-2" target="dMX4puC5dlwm4Q9mcy3y-17">
          <mxGeometry relative="1" as="geometry" />
        </mxCell>
        <mxCell id="dMX4puC5dlwm4Q9mcy3y-20" value="" style="edgeStyle=none;shape=connector;rounded=0;orthogonalLoop=1;jettySize=auto;html=1;strokeColor=default;align=center;verticalAlign=middle;fontFamily=Helvetica;fontSize=11;fontColor=default;labelBackgroundColor=default;endArrow=none;entryX=0.75;entryY=0;entryDx=0;entryDy=0;" edge="1" parent="1" source="dMX4puC5dlwm4Q9mcy3y-19" target="dMX4puC5dlwm4Q9mcy3y-2">
          <mxGeometry relative="1" as="geometry">
            <mxPoint x="740" y="110" as="targetPoint" />
          </mxGeometry>
        </mxCell>
        <mxCell id="dMX4puC5dlwm4Q9mcy3y-19" value="hora" style="ellipse;whiteSpace=wrap;html=1;align=center;fontFamily=Helvetica;fontSize=11;fontColor=default;labelBackgroundColor=default;" vertex="1" parent="1">
          <mxGeometry x="737" width="43" height="30" as="geometry" />
        </mxCell>
        <mxCell id="dMX4puC5dlwm4Q9mcy3y-24" value="N" style="text;strokeColor=none;fillColor=none;spacingLeft=4;spacingRight=4;overflow=hidden;rotatable=0;points=[[0,0.5],[1,0.5]];portConstraint=eastwest;fontSize=11;whiteSpace=wrap;html=1;fontFamily=Helvetica;fontColor=default;labelBackgroundColor=default;" vertex="1" parent="1">
          <mxGeometry x="650.5" y="120" width="19" height="30" as="geometry" />
        </mxCell>
        <mxCell id="dMX4puC5dlwm4Q9mcy3y-25" value="N" style="text;strokeColor=none;fillColor=none;spacingLeft=4;spacingRight=4;overflow=hidden;rotatable=0;points=[[0,0.5],[1,0.5]];portConstraint=eastwest;fontSize=11;whiteSpace=wrap;html=1;fontFamily=Helvetica;fontColor=default;labelBackgroundColor=default;" vertex="1" parent="1">
          <mxGeometry x="650.5" y="190" width="19" height="30" as="geometry" />
        </mxCell>
        <mxCell id="dMX4puC5dlwm4Q9mcy3y-27" style="edgeStyle=none;shape=connector;rounded=0;orthogonalLoop=1;jettySize=auto;html=1;strokeColor=default;align=center;verticalAlign=middle;fontFamily=Helvetica;fontSize=11;fontColor=default;labelBackgroundColor=default;endArrow=none;entryX=0.9;entryY=0.025;entryDx=0;entryDy=0;entryPerimeter=0;" edge="1" parent="1" source="dMX4puC5dlwm4Q9mcy3y-26" target="dMX4puC5dlwm4Q9mcy3y-2">
          <mxGeometry relative="1" as="geometry">
            <mxPoint x="750" y="150" as="targetPoint" />
          </mxGeometry>
        </mxCell>
        <mxCell id="dMX4puC5dlwm4Q9mcy3y-26" value="ciudadEscala" style="ellipse;whiteSpace=wrap;html=1;align=center;fontFamily=Helvetica;fontSize=11;fontColor=default;labelBackgroundColor=default;" vertex="1" parent="1">
          <mxGeometry x="770" y="20" width="80" height="40" as="geometry" />
        </mxCell>
        <mxCell id="dMX4puC5dlwm4Q9mcy3y-29" style="edgeStyle=none;shape=connector;rounded=0;orthogonalLoop=1;jettySize=auto;html=1;exitX=0.5;exitY=1;exitDx=0;exitDy=0;entryX=0.5;entryY=0;entryDx=0;entryDy=0;strokeColor=default;align=center;verticalAlign=middle;fontFamily=Helvetica;fontSize=11;fontColor=default;labelBackgroundColor=default;endArrow=none;" edge="1" parent="1" source="dMX4puC5dlwm4Q9mcy3y-28" target="dMX4puC5dlwm4Q9mcy3y-10">
          <mxGeometry relative="1" as="geometry" />
        </mxCell>
        <mxCell id="dMX4puC5dlwm4Q9mcy3y-28" value="asiento" style="ellipse;whiteSpace=wrap;html=1;align=center;fontFamily=Helvetica;fontSize=11;fontColor=default;labelBackgroundColor=default;" vertex="1" parent="1">
          <mxGeometry x="470" y="-30" width="60" height="30" as="geometry" />
        </mxCell>
        <mxCell id="dMX4puC5dlwm4Q9mcy3y-39" value="" style="edgeStyle=none;shape=connector;rounded=0;orthogonalLoop=1;jettySize=auto;html=1;strokeColor=default;align=center;verticalAlign=middle;fontFamily=Helvetica;fontSize=11;fontColor=default;labelBackgroundColor=default;endArrow=none;entryX=1;entryY=0.5;entryDx=0;entryDy=0;" edge="1" parent="1" source="dMX4puC5dlwm4Q9mcy3y-30" target="dMX4puC5dlwm4Q9mcy3y-34">
          <mxGeometry relative="1" as="geometry" />
        </mxCell>
        <mxCell id="dMX4puC5dlwm4Q9mcy3y-30" value="modelo" style="ellipse;whiteSpace=wrap;html=1;align=center;fontFamily=Helvetica;fontSize=11;fontColor=default;labelBackgroundColor=default;" vertex="1" parent="1">
          <mxGeometry x="1040" y="30" width="80" height="40" as="geometry" />
        </mxCell>
        <mxCell id="dMX4puC5dlwm4Q9mcy3y-38" style="edgeStyle=none;shape=connector;rounded=0;orthogonalLoop=1;jettySize=auto;html=1;exitX=0;exitY=0.5;exitDx=0;exitDy=0;strokeColor=default;align=center;verticalAlign=middle;fontFamily=Helvetica;fontSize=11;fontColor=default;labelBackgroundColor=default;endArrow=none;" edge="1" parent="1" source="dMX4puC5dlwm4Q9mcy3y-31">
          <mxGeometry relative="1" as="geometry">
            <mxPoint x="970" y="100" as="targetPoint" />
          </mxGeometry>
        </mxCell>
        <mxCell id="dMX4puC5dlwm4Q9mcy3y-31" value="fabricante" style="ellipse;whiteSpace=wrap;html=1;align=center;fontFamily=Helvetica;fontSize=11;fontColor=default;labelBackgroundColor=default;" vertex="1" parent="1">
          <mxGeometry x="1040" y="80" width="80" height="40" as="geometry" />
        </mxCell>
        <mxCell id="dMX4puC5dlwm4Q9mcy3y-32" value="hangar" style="ellipse;whiteSpace=wrap;html=1;align=center;fontFamily=Helvetica;fontSize=11;fontColor=default;labelBackgroundColor=default;" vertex="1" parent="1">
          <mxGeometry x="1040" y="140" width="80" height="40" as="geometry" />
        </mxCell>
        <mxCell id="dMX4puC5dlwm4Q9mcy3y-37" style="edgeStyle=none;shape=connector;rounded=0;orthogonalLoop=1;jettySize=auto;html=1;exitX=1;exitY=0.5;exitDx=0;exitDy=0;entryX=0;entryY=0.5;entryDx=0;entryDy=0;strokeColor=default;align=center;verticalAlign=middle;fontFamily=Helvetica;fontSize=11;fontColor=default;labelBackgroundColor=default;endArrow=none;" edge="1" parent="1" source="dMX4puC5dlwm4Q9mcy3y-34" target="dMX4puC5dlwm4Q9mcy3y-32">
          <mxGeometry relative="1" as="geometry" />
        </mxCell>
        <mxCell id="dMX4puC5dlwm4Q9mcy3y-34" value="Avion" style="whiteSpace=wrap;html=1;align=center;" vertex="1" parent="1">
          <mxGeometry x="870" y="80" width="100" height="40" as="geometry" />
        </mxCell>
        <mxCell id="dMX4puC5dlwm4Q9mcy3y-36" style="edgeStyle=none;shape=connector;rounded=0;orthogonalLoop=1;jettySize=auto;html=1;exitX=0.5;exitY=1;exitDx=0;exitDy=0;entryX=0.5;entryY=0;entryDx=0;entryDy=0;strokeColor=default;align=center;verticalAlign=middle;fontFamily=Helvetica;fontSize=11;fontColor=default;labelBackgroundColor=default;endArrow=none;" edge="1" parent="1" source="dMX4puC5dlwm4Q9mcy3y-35" target="dMX4puC5dlwm4Q9mcy3y-34">
          <mxGeometry relative="1" as="geometry" />
        </mxCell>
        <mxCell id="dMX4puC5dlwm4Q9mcy3y-35" value="idAvion" style="ellipse;whiteSpace=wrap;html=1;align=center;fontStyle=4;fontFamily=Helvetica;fontSize=11;fontColor=default;labelBackgroundColor=default;" vertex="1" parent="1">
          <mxGeometry x="870" y="-30" width="100" height="40" as="geometry" />
        </mxCell>
        <mxCell id="dMX4puC5dlwm4Q9mcy3y-40" value="TipoAvion" style="whiteSpace=wrap;html=1;align=center;" vertex="1" parent="1">
          <mxGeometry x="870" y="210" width="100" height="40" as="geometry" />
        </mxCell>
        <mxCell id="dMX4puC5dlwm4Q9mcy3y-42" style="edgeStyle=none;shape=connector;rounded=0;orthogonalLoop=1;jettySize=auto;html=1;exitX=0.5;exitY=0;exitDx=0;exitDy=0;entryX=0.5;entryY=1;entryDx=0;entryDy=0;strokeColor=default;align=center;verticalAlign=middle;fontFamily=Helvetica;fontSize=11;fontColor=default;labelBackgroundColor=default;endArrow=none;" edge="1" parent="1" source="dMX4puC5dlwm4Q9mcy3y-41" target="dMX4puC5dlwm4Q9mcy3y-40">
          <mxGeometry relative="1" as="geometry" />
        </mxCell>
        <mxCell id="dMX4puC5dlwm4Q9mcy3y-41" value="idTipo" style="ellipse;whiteSpace=wrap;html=1;align=center;fontStyle=4;fontFamily=Helvetica;fontSize=11;fontColor=default;labelBackgroundColor=default;" vertex="1" parent="1">
          <mxGeometry x="820" y="290" width="60" height="40" as="geometry" />
        </mxCell>
        <mxCell id="dMX4puC5dlwm4Q9mcy3y-45" style="edgeStyle=none;shape=connector;rounded=0;orthogonalLoop=1;jettySize=auto;html=1;exitX=0.5;exitY=0;exitDx=0;exitDy=0;entryX=0.5;entryY=1;entryDx=0;entryDy=0;strokeColor=default;align=center;verticalAlign=middle;fontFamily=Helvetica;fontSize=11;fontColor=default;labelBackgroundColor=default;endArrow=none;" edge="1" parent="1" target="dMX4puC5dlwm4Q9mcy3y-40">
          <mxGeometry relative="1" as="geometry">
            <mxPoint x="930" y="290" as="sourcePoint" />
          </mxGeometry>
        </mxCell>
        <mxCell id="dMX4puC5dlwm4Q9mcy3y-46" value="nombreTipo" style="ellipse;whiteSpace=wrap;html=1;align=center;fontFamily=Helvetica;fontSize=11;fontColor=default;labelBackgroundColor=default;" vertex="1" parent="1">
          <mxGeometry x="890" y="290" width="80" height="40" as="geometry" />
        </mxCell>
        <mxCell id="dMX4puC5dlwm4Q9mcy3y-49" style="edgeStyle=none;shape=connector;rounded=0;orthogonalLoop=1;jettySize=auto;html=1;exitX=0.5;exitY=0;exitDx=0;exitDy=0;entryX=0.5;entryY=1;entryDx=0;entryDy=0;strokeColor=default;align=center;verticalAlign=middle;fontFamily=Helvetica;fontSize=11;fontColor=default;labelBackgroundColor=default;endArrow=none;" edge="1" parent="1" source="dMX4puC5dlwm4Q9mcy3y-48" target="dMX4puC5dlwm4Q9mcy3y-40">
          <mxGeometry relative="1" as="geometry" />
        </mxCell>
        <mxCell id="dMX4puC5dlwm4Q9mcy3y-48" value="descripcion" style="ellipse;whiteSpace=wrap;html=1;align=center;fontFamily=Helvetica;fontSize=11;fontColor=default;labelBackgroundColor=default;" vertex="1" parent="1">
          <mxGeometry x="990" y="290" width="80" height="40" as="geometry" />
        </mxCell>
      </root>
    </mxGraphModel>
  </diagram>
</mxfile>
